#!OML:ASF I:\salsa\salsa 7_09\Patient 1\Session 1\dancermale.ASF
:FULLY-SPECIFIED
:DEGREES
1988
root -1.59617 17.1906 -5.33007 911.113 140.711 901.456
lowerback -0.972344 -4.93097 6.41135
upperback -1.04233 -6.57823 1.90238
thorax -1.02791 -3.32397 -1.57771
lowerneck -1.10362 12.245 8.29831
upperneck 19.2397 19.1409 -13.5708
head 8.26991 8.9013 -4.11961
rclavicle 5.18828e-014 0
rhumerus -36.0022 -35.7165 -56.2508
rradius 91.9586
rwrist -225.525
rhand -22.6788 -5.18225
rfingers 7.12502
rthumb 3.75332 -35.1289
lclavicle 5.18828e-014 0
lhumerus 15.8961 -14.2286 109.58
lradius 40.7777
lwrist 56.4441
lhand -18.2955 61.7549
lfingers 7.12502
lthumb 7.98511 628.416
rfemur -26.852 3.36515 9.1233
rtibia 31.4926
rfoot -15.1026 -8.44415
rtoes -18.6768
lfemur -24.0301 0.553748 -18.5078
ltibia 37.8964
lfoot -21.6143 4.75424
ltoes -18.7494
1989
root -1.71147 17.184 -5.35245 910.871 140.02 901.355
lowerback -0.538078 -4.88845 6.43049
upperback -1.11595 -6.48299 1.78217
thorax -1.35588 -3.28726 -1.66599
lowerneck -0.749416 12.4626 8.70109
upperneck 19.031 19.494 -13.9103
head 8.259 9.09957 -4.26778
rclavicle -2.00773e-014 1.59028e-014
rhumerus -37.4259 -34.9707 -56.8822
rradius 93.5158
rwrist -225.832
rhand -22.0463 -5.48995
rfingers 7.12502
rthumb 4.36409 -35.425
lclavicle -2.00773e-014 1.59028e-014
lhumerus 16.0024 -13.6704 109.503
lradius 40.7051
lwrist 55.7601
lhand -17.6827 61.6595
lfingers 7.12502
lthumb 8.57654 628.535
rfemur -26.4536 3.00059 9.61456
rtibia 30.8638
rfoot -14.9594 -8.93969
rtoes -17.0526
lfemur -24.9903 0.746749 -18.0688
ltibia 39.195
lfoot -21.2026 4.16118
ltoes -20.1405
1990
root -1.82815 17.1828 -5.36856 910.67 139.1 901.333
lowerback -0.303373 -4.94919 6.52661
upperback -1.12934 -6.54499 1.6501
thorax -1.53237 -3.32496 -1.82653
lowerneck -0.451004 12.666 8.8311
upperneck 18.905 19.8188 -14.0861
head 8.23895 9.27229 -4.32281
rclavicle 3.37934e-015 2.38542e-015
rhumerus -38.6867 -34.2889 -57.6849
rradius 95.2185
rwrist -225.912
rhand -21.6732 -5.62958
rfingers 7.12502
rthumb 4.72432 -35.5569
lclavicle 3.37934e-015 2.38542e-015
lhumerus 15.6823 -13.5962 108.91
lradius 41.733
lwrist 55.7296
lhand -17.9097 61.7341
lfingers 7.12502
lthumb 8.35749 628.451
rfemur -26.1673 2.44875 10.0558
rtibia 30.5814
rfoot -14.8882 -9.45154
rtoes -15.9999
lfemur -25.814 1.01973 -17.6666
ltibia 40.0751
lfoot -20.5897 3.34484
ltoes -21.6797
1991
root -1.95089 17.1838 -5.38137 910.506 138.014 901.259
lowerback -0.209474 -5.03719 6.70621
upperback -1.1476 -6.65327 1.56122
thorax -1.64416 -3.3848 -1.9994
lowerneck -0.30219 12.8281 8.77838
upperneck 18.868 20.0746 -14.13
head 8.23355 9.39866 -4.30666
rclavicle 2.00773e-014 1.43125e-014
rhumerus -39.9251 -33.6025 -58.4127
rradius 97.0166
rwrist -225.639
rhand -20.8942 -6.05993
rfingers 7.12502
rthumb 5.47652 -35.9692
lclavicle 2.00773e-014 1.43125e-014
lhumerus 14.8712 -13.9139 107.882
lradius 43.7174
lwrist 56.3512
lhand -18.2661 61.4409
lfingers 7.12502
lthumb 8.01355 628.731
rfemur -26.0753 1.99526 10.5422
rtibia 30.5538
rfoot -14.8749 -10.1981
rtoes -14.8088
lfemur -26.7739 1.6575 -17.1676
ltibia 40.9062
lfoot -20.0191 1.89928
ltoes -21.0796
1992
root -2.08269 17.1679 -5.3929 910.67 138.134 900.941
lowerback -0.39117 -4.63984 6.70477
upperback -1.32682 -6.13013 1.59121
thorax -1.67958 -3.12845 -1.99316
lowerneck 0.0456962 12.9357 8.9708
upperneck 18.9282 20.3193 -14.3873
head 8.27421 9.53069 -4.41036
rclavicle -2.83268e-014 -1.82882e-014
rhumerus -41.1865 -32.8232 -58.9835
rradius 98.7823
rwrist -224.722
rhand -19.2957 -7.59951
rfingers 7.12502
rthumb 7.01972 -37.4631
lclavicle -2.83268e-014 -1.82882e-014
lhumerus 13.7326 -14.0849 106.876
lradius 46.129
lwrist 56.8052
lhand -17.6689 61.4063
lfingers 7.12502
lthumb 8.5899 628.788
rfemur -27.1998 2.34153 11.0926
rtibia 30.9983
rfoot -14.7864 -10.4261
rtoes -13.9654
lfemur -28.2746 3.86798 -16.6468
ltibia 41.93
lfoot -19.4463 0.39208
ltoes -20.5337
1993
root -2.20326 17.1668 -5.39679 910.475 136.402 900.771
lowerback -0.416612 -4.81356 7.06705
upperback -1.3976 -6.35657 1.60142
thorax -1.7976 -3.24978 -2.16859
lowerneck 0.25066 12.9799 9.20791
upperneck 19.0764 20.4782 -14.6185
head 8.3614 9.61653 -4.51207
rclavicle 6.30147e-014 -3.4191e-014
rhumerus -42.5048 -32.2801 -59.4446
rradius 100.703
rwrist -223.64
rhand -17.995 -8.21039
rfingers 7.12502
rthumb 8.27519 -38.0283
lclavicle 6.30147e-014 -3.4191e-014
lhumerus 11.9238 -14.9855 105.379
lradius 49.6259
lwrist 58.2129
lhand -17.9145 61.3731
lfingers 7.12502
lthumb 8.35283 628.812
rfemur -26.8632 1.71239 11.601
rtibia 30.6026
rfoot -14.6964 -11.2585
rtoes -12.5709
lfemur -29.6366 4.86189 -16.0874
ltibia 43.2712
lfoot -19.1502 -1.65881
ltoes -21.7403
1994
root -2.32349 17.1659 -5.39588 910.156 134.648 900.441
lowerback -0.422881 -4.95432 7.56998
upperback -1.4958 -6.53382 1.63075
thorax -1.96705 -3.35062 -2.39731
lowerneck -0.109677 12.9636 9.08577
upperneck 19.7356 20.5007 -14.2778
head 8.60127 9.60186 -4.34899
rclavicle 3.81667e-014 2.38542e-014
rhumerus -43.8907 -31.7767 -59.8154
rradius 102.59
rwrist -222.788
rhand -16.9798 -8.77858
rfingers 7.12502
rthumb 9.25479 -38.5555
lclavicle 3.81667e-014 2.38542e-014
lhumerus 9.87917 -15.664 103.969
lradius 53.3737
lwrist 59.6249
lhand -18.7511 61.1732
lfingers 7.12502
lthumb 7.54539 628.981
rfemur -26.5615 1.11594 12.2485
rtibia 30.3375
rfoot -14.6961 -12.1066
rtoes -11.1217
lfemur -30.9393 6.0226 -15.3977
ltibia 44.4932
lfoot -18.9034 -3.87861
ltoes -24.4309
1995
root -2.43594 17.1649 -5.38921 909.717 132.851 900.21
lowerback -0.375819 -5.11951 7.9828
upperback -1.50536 -6.74322 1.66265
thorax -2.06977 -3.46265 -2.57231
lowerneck -0.54318 12.9508 8.71438
upperneck 20.1548 20.4858 -13.8986
head 8.73709 9.5612 -4.13862
rclavicle 1.16786e-013 -2.22639e-014
rhumerus -45.1427 -31.1749 -60.1952
rradius 104.368
rwrist -222.167
rhand -15.9065 -9.50152
rfingers 7.12502
rthumb 10.2904 -39.2298
lclavicle 1.16786e-013 -2.22639e-014
lhumerus 7.67338 -15.8751 102.576
lradius 57.5239
lwrist 60.6231
lhand -18.5849 61.7434
lfingers 7.12502
lthumb 7.70585 628.417
rfemur -26.0282 0.421728 12.8137
rtibia 30.0364
rfoot -14.5899 -13.0942
rtoes -10.2247
lfemur -31.8527 7.24055 -14.7586
ltibia 45.2836
lfoot -18.6882 -6.30419
ltoes -28.6827
1996
root -2.54454 17.1623 -5.38249 909.403 131.111 900.087
lowerback -0.47484 -5.20307 8.32761
upperback -1.43444 -6.86505 1.65219
thorax -1.99662 -3.52324 -2.77704
lowerneck 0.225588 12.8368 9.24706
upperneck 19.4624 20.3736 -14.537
head 8.47668 9.57407 -4.50059
rclavicle -2.3556e-014 1.35174e-014
rhumerus -46.2088 -30.7671 -60.6081
rradius 105.953
rwrist -221.929
rhand -15.1254 -10.0597
rfingers 7.12502
rthumb 11.0438 -39.7491
lclavicle -2.3556e-014 1.35174e-014
lhumerus 5.41409 -16.1507 101.104
lradius 61.917
lwrist 61.46
lhand -18.2364 62.3529
lfingers 7.12502
lthumb 8.04222 627.82
rfemur -25.6206 -0.416109 13.2664
rtibia 29.7964
rfoot -14.4104 -14.0453
rtoes -9.78739
lfemur -32.6611 8.58825 -14.2014
ltibia 45.6963
lfoot -18.5052 -8.92384
ltoes -31.4584
1997
root -2.64865 17.1606 -5.3769 909.09 129.567 899.932
lowerback -0.48772 -5.16263 8.70757
upperback -1.41794 -6.81042 1.61474
thorax -2.0167 -3.50106 -3.02392
lowerneck 0.148041 12.6694 9.32409
upperneck 19.4145 20.1289 -14.5154
head 8.44521 9.46737 -4.53168
rclavicle -1.01977e-013 3.97569e-014
rhumerus -47.3019 -30.5765 -60.9386
rradius 107.461
rwrist -221.649
rhand -15.0322 -10.3236
rfingers 7.12502
rthumb 11.1337 -40.0082
lclavicle -1.01977e-013 3.97569e-014
lhumerus 2.92548 -16.5428 99.6794
lradius 66.3855
lwrist 62.0692
lhand -18.4254 62.4485
lfingers 7.12502
lthumb 7.85973 627.718
rfemur -25.2896 -1.40097 13.7075
rtibia 29.6094
rfoot -14.3385 -14.6111
rtoes -8.93399
lfemur -33.2988 10.1169 -13.6115
ltibia 45.8998
lfoot -18.4022 -11.4937
ltoes -34.6735
1998
root -2.74262 17.1592 -5.37249 908.781 128.28 899.743
lowerback -0.524293 -5.05722 9.14209
upperback -1.42945 -6.67024 1.56655
thorax -2.04905 -3.4385 -3.31608
lowerneck 0.060454 12.5136 9.36161
upperneck 19.3871 19.9018 -14.4766
head 8.41892 9.36621 -4.54821
rclavicle 2.23633e-014 -4.29375e-014
rhumerus -48.2781 -30.4073 -61.2851
rradius 109.028
rwrist -220.914
rhand -15.4417 -9.71973
rfingers 7.12502
rthumb 10.7387 -39.4253
lclavicle 2.23633e-014 -4.29375e-014
lhumerus 0.279444 -16.5988 98.278
lradius 70.8529
lwrist 62.6294
lhand -18.7017 62.4683
lfingers 7.12502
lthumb 7.59305 627.688
rfemur -24.9902 -2.42819 14.1186
rtibia 29.3726
rfoot -14.315 -14.8253
rtoes -7.78725
lfemur -33.7157 11.7123 -12.9602
ltibia 45.7985
lfoot -18.6487 -13.3144
ltoes -38.2377
1999
root -2.82683 17.161 -5.37319 908.628 127.175 899.692
lowerback -0.739426 -4.88224 9.51041
upperback -1.36092 -6.46561 1.47976
thorax -1.88336 -3.33373 -3.63829
lowerneck -0.118008 12.3235 9.40498
upperneck 19.3256 19.6078 -14.4255
head 8.38731 9.22979 -4.5639
rclavicle -2.85256e-014 2.22639e-014
rhumerus -49.0401 -30.2835 -61.6355
rradius 110.502
rwrist -220.162
rhand -15.5009 -9.13319
rfingers 7.12502
rthumb 10.6816 -38.8417
lclavicle -2.85256e-014 2.22639e-014
lhumerus -2.27652 -16.3946 96.8447
lradius 75.2403
lwrist 63.4516
lhand -18.8242 62.4638
lfingers 7.12502
lthumb 7.47488 627.688
rfemur -24.7198 -3.40884 14.3737
rtibia 29.0293
rfoot -14.1496 -14.9679
rtoes -6.73647
lfemur -33.9236 13.0274 -12.329
ltibia 45.2734
lfoot -18.8634 -14.2632
ltoes -35.587
2000
root -2.90211 17.1682 -5.37257 908.471 126.278 899.793
lowerback -0.875636 -4.64297 9.63642
upperback -1.24145 -6.17142 1.42024
thorax -1.66274 -3.17655 -3.80046
lowerneck -0.354054 12.1614 9.32616
upperneck 19.4771 19.3386 -14.1341
head 8.4037 9.10319 -4.47457
rclavicle 6.15239e-014 -1.03368e-014
rhumerus -49.6344 -29.8752 -61.9485
rradius 111.541
rwrist -220.265
rhand -14.6712 -10.1905
rfingers 7.12502
rthumb 11.4818 -39.856
lclavicle 6.15239e-014 -1.03368e-014
lhumerus -4.81246 -15.9274 95.5668
lradius 79.4958
lwrist 64.0951
lhand -18.9172 62.0712
lfingers 7.12502
lthumb 7.38503 628.078
rfemur -24.2493 -4.08283 14.4677
rtibia 28.5367
rfoot -13.8881 -15.2048
rtoes -5.14272
lfemur -33.6262 13.8476 -11.5629
ltibia 44.3245
lfoot -19.0942 -11.4759
ltoes -33.7252
